<?xml version="1.0" encoding="UTF-8" standalone="no"?>
<svg width="86px" height="53px" viewBox="0 0 86 53" version="1.1" xmlns="http://www.w3.org/2000/svg" xmlns:xlink="http://www.w3.org/1999/xlink">
    <!-- Generator: Sketch 40.1 (33804) - http://www.bohemiancoding.com/sketch -->
    <title>♒︎</title>
    <desc>Created with Sketch.</desc>
    <defs></defs>
    <g id="Index" stroke="none" stroke-width="1" fill="none" fill-rule="evenodd">
        <g id="Desktop" transform="translate(-179.000000, -399.000000)" fill="#4169E1">
            <g id="astro-wheel" transform="translate(126.000000, 123.000000)">
                <g id="aquarius" transform="translate(15.000000, 232.000000)">
                    <path d="M123.65977,50.5488281 C122.683202,50.5488281 121.739201,50.8906216 120.827738,51.5742188 C119.916275,52.2578159 118.728136,53.9830591 117.263285,56.75 C115.277598,60.4935083 113.470976,62.8779246 111.843363,63.9033203 C110.215751,64.9287161 108.474232,65.4414062 106.618754,65.4414062 C104.795828,65.4414062 103.070585,64.9287161 101.442973,63.9033203 C99.8153604,62.8779246 98.0087379,60.4935083 96.0230508,56.75 C94.5256475,53.9830591 93.3293704,52.2578159 92.4341837,51.5742188 C91.5389969,50.8906216 90.6031339,50.5488281 89.6265665,50.5488281 C88.6499991,50.5488281 87.7141361,50.8906216 86.8189493,51.5742188 C85.9237625,52.2578159 84.7437613,53.9830591 83.2789102,56.75 C81.2932232,60.4935083 79.4784627,62.8779246 77.8345743,63.9033203 C76.1906859,64.9287161 74.4573048,65.4414062 72.634379,65.4414062 C70.8114532,65.4414062 69.08621,64.9287161 67.4585977,63.9033203 C65.8309854,62.8779246 64.008087,60.4935083 61.9898477,56.75 C60.5249966,53.9830591 59.3449954,52.2578159 58.4498087,51.5742188 C57.5546219,50.8906216 56.6187589,50.5488281 55.6421915,50.5488281 C54.6656241,50.5488281 53.7297611,50.8906216 52.8345743,51.5742188 C51.9393875,52.2578159 50.7431104,53.9830591 49.2457071,56.75 C47.2600201,60.4935083 45.4533975,62.8779246 43.8257852,63.9033203 C42.1981729,64.9287161 40.4729298,65.4414062 38.650004,65.4414062 L38.650004,59.7285156 C39.6265714,59.7285156 40.5624344,59.3867222 41.4576212,58.703125 C42.3528079,58.0195278 43.5328091,56.2942847 44.9976602,53.5273438 C46.9833472,49.7838354 48.7981077,47.3994192 50.4419962,46.3740234 C52.0858846,45.3486277 53.8192657,44.8359375 55.6421915,44.8359375 C57.4651173,44.8359375 59.1903604,45.3486277 60.8179727,46.3740234 C62.445585,47.3994192 64.2684835,49.7838354 66.2867227,53.5273438 C67.7515738,56.2942847 68.931575,58.0195278 69.8267618,58.703125 C70.7219486,59.3867222 71.6578116,59.7285156 72.634379,59.7285156 C73.6109464,59.7285156 74.5468094,59.3867222 75.4419962,58.703125 C76.3371829,58.0195278 77.53346,56.2942847 79.0308633,53.5273438 C81.0165504,49.7838354 82.8231729,47.3994192 84.4507852,46.3740234 C86.0783975,45.3486277 87.8036407,44.8359375 89.6265665,44.8359375 C91.4820445,44.8359375 93.2235635,45.3486277 94.8511758,46.3740234 C96.4787882,47.3994192 98.2854107,49.7838354 100.271098,53.5273438 C101.735949,56.2942847 102.924088,58.0195278 103.835551,58.703125 C104.747014,59.3867222 105.674739,59.7285156 106.618754,59.7285156 C107.595321,59.7285156 108.539322,59.3867222 109.450785,58.703125 C110.362248,58.0195278 111.550387,56.2942847 113.015238,53.5273438 C115.000925,49.7838354 116.807548,47.3994192 118.43516,46.3740234 C120.062773,45.3486277 121.804292,44.8359375 123.65977,44.8359375 L123.65977,50.5488281 Z M123.65977,81.1640625 C122.683202,81.1640625 121.739201,81.505856 120.827738,82.1894531 C119.916275,82.8730503 118.728136,84.5982935 117.263285,87.3652344 C115.277598,91.1087427 113.470976,93.4931589 111.843363,94.5185547 C110.215751,95.5439504 108.474232,96.0566406 106.618754,96.0566406 C104.795828,96.0566406 103.070585,95.5439504 101.442973,94.5185547 C99.8153604,93.4931589 98.0087379,91.1087427 96.0230508,87.3652344 C94.5256475,84.5982935 93.3293704,82.8730503 92.4341837,82.1894531 C91.5389969,81.505856 90.6031339,81.1640625 89.6265665,81.1640625 C88.6499991,81.1640625 87.7141361,81.505856 86.8189493,82.1894531 C85.9237625,82.8730503 84.7437613,84.5982935 83.2789102,87.3652344 C81.2932232,91.1087427 79.4784627,93.4931589 77.8345743,94.5185547 C76.1906859,95.5439504 74.4573048,96.0566406 72.634379,96.0566406 C70.8114532,96.0566406 69.08621,95.5439504 67.4585977,94.5185547 C65.8309854,93.4931589 64.008087,91.1087427 61.9898477,87.3652344 C60.5249966,84.5982935 59.3449954,82.8730503 58.4498087,82.1894531 C57.5546219,81.505856 56.6187589,81.1640625 55.6421915,81.1640625 C54.6656241,81.1640625 53.7297611,81.505856 52.8345743,82.1894531 C51.9393875,82.8730503 50.7431104,84.5982935 49.2457071,87.3652344 C47.2600201,91.1087427 45.4533975,93.4931589 43.8257852,94.5185547 C42.1981729,95.5439504 40.4729298,96.0566406 38.650004,96.0566406 L38.650004,90.34375 C39.6265714,90.34375 40.5624344,90.0019565 41.4576212,89.3183594 C42.3528079,88.6347622 43.5328091,86.909519 44.9976602,84.1425781 C46.9833472,80.3990698 48.7981077,78.0146536 50.4419962,76.9892578 C52.0858846,75.9638621 53.8192657,75.4511719 55.6421915,75.4511719 C57.4651173,75.4511719 59.1903604,75.9638621 60.8179727,76.9892578 C62.445585,78.0146536 64.2684835,80.3990698 66.2867227,84.1425781 C67.7515738,86.909519 68.931575,88.6347622 69.8267618,89.3183594 C70.7219486,90.0019565 71.6578116,90.34375 72.634379,90.34375 C73.6109464,90.34375 74.5468094,90.0019565 75.4419962,89.3183594 C76.3371829,88.6347622 77.53346,86.909519 79.0308633,84.1425781 C81.0165504,80.3990698 82.8231729,78.0146536 84.4507852,76.9892578 C86.0783975,75.9638621 87.8036407,75.4511719 89.6265665,75.4511719 C91.4820445,75.4511719 93.2235635,75.9638621 94.8511758,76.9892578 C96.4787882,78.0146536 98.2854107,80.3990698 100.271098,84.1425781 C101.735949,86.909519 102.924088,88.6347622 103.835551,89.3183594 C104.747014,90.0019565 105.674739,90.34375 106.618754,90.34375 C107.595321,90.34375 108.539322,90.0019565 109.450785,89.3183594 C110.362248,88.6347622 111.550387,86.909519 113.015238,84.1425781 C115.000925,80.3990698 116.807548,78.0146536 118.43516,76.9892578 C120.062773,75.9638621 121.804292,75.4511719 123.65977,75.4511719 L123.65977,81.1640625 Z" id="♒︎"></path>
                </g>
            </g>
        </g>
    </g>
</svg>