<?xml version="1.0" encoding="UTF-8" standalone="no"?>
<svg width="77px" height="72px" viewBox="0 0 77 72" version="1.1" xmlns="http://www.w3.org/2000/svg" xmlns:xlink="http://www.w3.org/1999/xlink">
    <!-- Generator: Sketch 40.1 (33804) - http://www.bohemiancoding.com/sketch -->
    <title>♈︎</title>
    <desc>Created with Sketch.</desc>
    <defs></defs>
    <g id="Index" stroke="none" stroke-width="1" fill="none" fill-rule="evenodd">
        <g id="Desktop" transform="translate(-390.000000, -184.000000)" fill="#4169E1">
            <g id="astro-wheel" transform="translate(126.000000, 123.000000)">
                <g id="aries" transform="translate(229.000000, 14.000000)">
                    <path d="M73.1992188,62.5527344 C74.1432339,58.0605244 76.3242017,54.4228655 79.7421875,51.6396484 C83.1601733,48.8564314 87.1152119,47.4648438 91.6074219,47.4648438 C97.3366172,47.4648438 102.015932,49.4179492 105.645508,53.3242188 C109.275083,57.2304883 111.089844,62.113252 111.089844,67.9726562 C111.089844,74.6458667 109.144876,79.8785618 105.254883,83.6708984 C101.364889,87.4632351 96.2135737,89.359375 89.8007812,89.359375 L89.8007812,83.6464844 C94.4557524,83.6464844 98.1666528,82.2793105 100.933594,79.5449219 C103.700535,76.8105332 105.083984,72.9531499 105.083984,67.9726562 C105.083984,63.5129985 103.830742,59.9323052 101.324219,57.2304688 C98.8176958,54.5286323 95.4811406,53.1777344 91.3144531,53.1777344 C86.8547954,53.1777344 83.2171365,55.114564 80.4013672,58.9882812 C77.5855979,62.8619985 76.1777344,67.8912451 76.1777344,74.0761719 L76.1777344,118.363281 L70.2207031,118.363281 L70.2207031,74.0761719 C70.2207031,67.8912451 68.8209775,62.8619985 66.0214844,58.9882812 C63.2219912,55.114564 59.5761943,53.1777344 55.0839844,53.1777344 C50.9172969,53.1777344 47.5807417,54.5286323 45.0742188,57.2304688 C42.5676958,59.9323052 41.3144531,63.5129985 41.3144531,67.9726562 C41.3144531,72.9531499 42.6897649,76.8105332 45.4404297,79.5449219 C48.1910945,82.2793105 51.9101328,83.6464844 56.5976562,83.6464844 L56.5976562,89.359375 C50.1848638,89.359375 45.0335481,87.4632351 41.1435547,83.6708984 C37.2535613,79.8785618 35.3085938,74.6458667 35.3085938,67.9726562 C35.3085938,62.113252 37.1233542,57.2304883 40.7529297,53.3242188 C44.3825051,49.4179492 49.0618203,47.4648438 54.7910156,47.4648438 C59.2832256,47.4648438 63.2382642,48.8564314 66.65625,51.6396484 C70.0742358,54.4228655 72.2552036,58.0605244 73.1992188,62.5527344 L73.1992188,62.5527344 Z" id="♈︎"></path>
                </g>
            </g>
        </g>
    </g>
</svg>