<?xml version="1.0" encoding="UTF-8" standalone="no"?>
<svg width="80px" height="71px" viewBox="0 0 80 71" version="1.1" xmlns="http://www.w3.org/2000/svg" xmlns:xlink="http://www.w3.org/1999/xlink">
    <!-- Generator: Sketch 40.1 (33804) - http://www.bohemiancoding.com/sketch -->
    <title>♋︎</title>
    <desc>Created with Sketch.</desc>
    <defs></defs>
    <g id="Index" stroke="none" stroke-width="1" fill="none" fill-rule="evenodd">
        <g id="Desktop" transform="translate(-770.000000, -396.000000)" fill="#4169E1">
            <g id="astro-wheel" transform="translate(126.000000, 123.000000)">
                <g id="cancer" transform="translate(608.000000, 231.000000)">
                    <path d="M115.991211,57.1835938 C111.206031,54.709623 104.65499,52.569345 96.3378906,50.7626953 C88.0207917,48.9560457 80.8512671,48.0527344 74.8291016,48.0527344 C72.3551309,48.0527344 69.116231,48.2480449 65.1123047,48.6386719 C67.7164844,50.4290454 69.7346934,52.6995305 71.1669922,55.4501953 C72.599291,58.2008601 73.3154297,61.1061045 73.3154297,64.1660156 C73.3154297,69.244166 71.5006692,73.5979636 67.8710938,77.2275391 C64.2415183,80.8571145 59.8877207,82.671875 54.8095703,82.671875 C49.7314199,82.671875 45.3776223,80.8571145 41.7480469,77.2275391 C38.1184714,73.5979636 36.3037109,69.244166 36.3037109,64.1660156 C36.3037109,60.0644326 37.6546089,56.2233252 40.3564453,52.6425781 C43.0582817,49.0618311 47.452769,46.4495525 53.5400391,44.8056641 C59.6273091,43.1617756 66.7235923,42.3398438 74.8291016,42.3398438 C81.0140283,42.3398438 88.4195532,43.2675688 97.0458984,45.1230469 C105.672244,46.9785249 111.987285,49.0943892 115.991211,51.4707031 L115.991211,57.1835938 Z M54.8095703,76.9589844 C58.2275562,76.9589844 61.1653523,75.6894658 63.6230469,73.1503906 C66.0807415,70.6113154 67.3095703,67.6165537 67.3095703,64.1660156 C67.3095703,60.6829253 66.0807415,57.6800256 63.6230469,55.1572266 C61.1653523,52.6344275 58.2275562,51.3730469 54.8095703,51.3730469 C51.3915845,51.3730469 48.4537883,52.6425654 45.9960938,55.1816406 C43.5383992,57.7207158 42.3095703,60.7154775 42.3095703,64.1660156 C42.3095703,67.6165537 43.5383992,70.6113154 45.9960938,73.1503906 C48.4537883,75.6894658 51.3915845,76.9589844 54.8095703,76.9589844 L54.8095703,76.9589844 Z M87.2314453,105.962891 C84.6272656,104.172517 82.6090566,101.902032 81.1767578,99.1513672 C79.744459,96.4007024 79.0283203,93.5117339 79.0283203,90.484375 C79.0283203,85.4062246 80.8430808,81.052427 84.4726562,77.4228516 C88.1022317,73.7932761 92.4560293,71.9785156 97.5341797,71.9785156 C102.579778,71.9785156 106.9173,73.7932761 110.546875,77.4228516 C114.17645,81.052427 115.991211,85.4062246 115.991211,90.484375 C115.991211,94.5534058 114.648451,98.3782373 111.962891,101.958984 C109.27733,105.539731 104.890981,108.15201 98.8037109,109.795898 C92.7164409,111.439787 85.6201577,112.261719 77.5146484,112.261719 C71.3297217,112.261719 63.9160588,111.342132 55.2734375,109.50293 C46.6308162,107.663728 40.3076372,105.556001 36.3037109,103.179688 L36.3037109,97.4667969 C41.0888911,99.9082153 47.6399324,102.032218 55.9570312,103.838867 C64.2741301,105.645517 71.4599307,106.548828 77.5146484,106.548828 C79.9886191,106.548828 83.227519,106.353518 87.2314453,105.962891 L87.2314453,105.962891 Z M97.5341797,103.277344 C100.919613,103.277344 103.849271,102.007825 106.323242,99.46875 C108.797213,96.9296748 110.03418,93.9349131 110.03418,90.484375 C110.03418,87.0012847 108.805351,83.9902471 106.347656,81.4511719 C103.889962,78.9120967 100.952166,77.6425781 97.5341797,77.6425781 C94.1161938,77.6425781 91.1783977,78.9120967 88.7207031,81.4511719 C86.2630085,83.9902471 85.0341797,87.0012847 85.0341797,90.484375 C85.0341797,93.9349131 86.2630085,96.9296748 88.7207031,99.46875 C91.1783977,102.007825 94.1161938,103.277344 97.5341797,103.277344 L97.5341797,103.277344 Z" id="♋︎"></path>
                </g>
            </g>
        </g>
    </g>
</svg>