<?xml version="1.0" encoding="UTF-8" standalone="no"?>
<svg width="79px" height="80px" viewBox="0 0 79 80" version="1.1" xmlns="http://www.w3.org/2000/svg" xmlns:xlink="http://www.w3.org/1999/xlink">
    <!-- Generator: Sketch 40.1 (33804) - http://www.bohemiancoding.com/sketch -->
    <title>♑︎</title>
    <desc>Created with Sketch.</desc>
    <defs></defs>
    <g id="Index" stroke="none" stroke-width="1" fill="none" fill-rule="evenodd">
        <g id="Desktop" transform="translate(-176.000000, -549.000000)" fill="#4169E1">
            <g id="astro-wheel" transform="translate(126.000000, 123.000000)">
                <g id="capricorn" transform="translate(15.000000, 387.000000)">
                    <path d="M97.5386758,67.1054688 C98.482691,68.3424541 100.126555,70.3443872 102.470316,73.1113281 C107.45081,78.8730757 110.592055,83.267563 111.894145,86.2949219 C113.196234,89.3222808 113.84727,92.1542837 113.84727,94.7910156 C113.84727,102.017614 111.666302,107.714172 107.304301,111.880859 C102.9423,116.047547 97.4247769,118.147135 90.7515665,118.179688 L90.7515665,112.515625 C95.9273736,112.385416 100.069585,110.692725 103.178324,107.4375 C106.287064,104.182275 107.84141,99.9668228 107.84141,94.7910156 C107.84141,92.4798062 107.239203,89.9570449 106.03477,87.2226562 C104.830336,84.4882676 101.900678,80.403022 97.2457071,74.9667969 C93.4045421,70.4420347 90.8329532,67.0892036 89.5308633,64.9082031 C85.2990714,63.1829341 80.9696876,60.904311 76.5425821,58.0722656 L59.3550821,113.003906 L35.9175821,41.2753906 L41.5328165,39.2734375 L59.3550821,93.6191406 L73.3199258,48.8925781 C78.3329717,52.4407729 82.6786314,55.2076724 86.3570352,57.1933594 C86.064065,56.0540308 85.9175821,54.7519604 85.9175821,53.2871094 C85.9175821,49.3808398 87.2522042,46.0686985 89.9214883,43.3505859 C92.5907725,40.6324734 95.8622242,39.2734375 99.7359415,39.2734375 C103.609659,39.2734375 106.88111,40.6324734 109.550395,43.3505859 C112.219679,46.0686985 113.554301,49.3808398 113.554301,53.2871094 C113.554301,57.7142148 112.268506,61.1402874 109.696879,63.5654297 C107.125252,65.990572 103.804972,67.203125 99.7359415,67.203125 C98.7593741,67.203125 98.0269595,67.1705732 97.5386758,67.1054688 L97.5386758,67.1054688 Z M93.5347696,60.3183594 C96.0412925,61.0996133 98.1083292,61.4902344 99.7359415,61.4902344 C102.014599,61.4902344 103.886325,60.7415439 105.351176,59.2441406 C106.816027,57.7467373 107.548441,55.7610801 107.548441,53.2871094 C107.548441,51.0410044 106.783475,49.0960369 105.25352,47.4521484 C103.723564,45.80826 101.88439,44.9863281 99.7359415,44.9863281 C97.5874932,44.9863281 95.7483189,45.80826 94.2183633,47.4521484 C92.6884078,49.0960369 91.9234415,51.0410044 91.9234415,53.2871094 C91.9234415,55.6308711 92.4605455,57.9745977 93.5347696,60.3183594 L93.5347696,60.3183594 Z" id="♑︎"></path>
                </g>
            </g>
        </g>
    </g>
</svg>