<?xml version="1.0" encoding="UTF-8" standalone="no"?>
<svg width="72px" height="89px" viewBox="0 0 72 89" version="1.1" xmlns="http://www.w3.org/2000/svg" xmlns:xlink="http://www.w3.org/1999/xlink">
    <!-- Generator: Sketch 40.1 (33804) - http://www.bohemiancoding.com/sketch -->
    <title>♌︎</title>
    <desc>Created with Sketch.</desc>
    <defs></defs>
    <g id="Index" stroke="none" stroke-width="1" fill="none" fill-rule="evenodd">
        <g id="Desktop" transform="translate(-773.000000, -543.000000)" fill="#4169E1">
            <g id="astro-wheel" transform="translate(126.000000, 123.000000)">
                <g id="leo" transform="translate(608.000000, 391.000000)">
                    <path d="M110.126073,115.201172 C108.107834,116.731127 105.503693,117.496094 102.313573,117.496094 C98.5700647,117.496094 95.2823372,116.063816 92.4502917,113.199219 C89.6182463,110.334621 88.2022449,106.737652 88.2022449,102.408203 C88.2022449,99.478501 88.4707969,96.3047046 89.0079089,92.8867188 C89.545021,89.4687329 90.8389534,84.618521 92.8897449,78.3359375 C94.9079841,72.183563 96.1693647,67.471696 96.6739246,64.2001953 C97.1784844,60.9286946 97.4307605,57.8932432 97.4307605,55.09375 C97.4307605,42.1054038 92.8897903,35.6113281 83.8077136,35.6113281 C79.5759216,35.6113281 76.2556423,36.9052605 73.8467761,39.4931641 C71.4379099,42.0810676 70.2334949,45.6210713 70.2334949,50.1132812 C70.2334949,54.4101777 71.291427,59.8951489 73.407323,66.5683594 C75.3604578,72.7532861 76.3370105,77.7011533 76.3370105,81.4121094 C76.3370105,86.4902598 74.52225,90.8440574 70.8926746,94.4736328 C67.2630991,98.1032083 62.9093015,99.9179688 57.8311511,99.9179688 C52.7530007,99.9179688 48.3992031,98.1032083 44.7696277,94.4736328 C41.1400522,90.8440574 39.3252917,86.4902598 39.3252917,81.4121094 C39.3252917,76.333959 41.1400522,71.9801614 44.7696277,68.3505859 C48.3992031,64.7210105 52.7530007,62.90625 57.8311511,62.90625 C61.249137,62.90625 64.341554,63.7363198 67.1084949,65.3964844 C65.1879124,59.6998413 64.2276355,54.6054912 64.2276355,50.1132812 C64.2276355,44.0260112 66.0017063,39.1351096 69.5499011,35.4404297 C73.0980959,31.7457498 77.8506526,29.8984375 83.8077136,29.8984375 C90.0251926,29.8984375 94.8509907,32.1363708 98.2852527,36.6123047 C101.719515,41.0882385 103.43662,47.2486587 103.43662,55.09375 C103.43662,57.8281387 103.184344,60.7984866 102.679784,64.0048828 C102.175224,67.2112791 100.930119,71.8580425 98.9444324,77.9453125 C96.8610886,84.2930005 95.5508804,89.2083159 95.0137683,92.6914062 C94.4766563,96.1744966 94.2081042,99.4133965 94.2081042,102.408203 C94.2081042,105.240249 95.0056223,107.518872 96.6006824,109.244141 C98.1957424,110.96941 100.10002,111.832031 102.313573,111.832031 C105.666454,111.832031 108.270595,111.197272 110.126073,109.927734 L110.126073,115.201172 Z M57.8311511,94.2050781 C61.249137,94.2050781 64.1869331,92.9599734 66.6446277,90.4697266 C69.1023223,87.9794797 70.3311511,84.9603042 70.3311511,81.4121094 C70.3311511,77.8639146 69.1104602,74.844739 66.6690417,72.3544922 C64.2276233,69.8642454 61.2816892,68.6191406 57.8311511,68.6191406 C54.380613,68.6191406 51.434679,69.8723833 48.9932605,72.3789062 C46.551842,74.8854292 45.3311511,77.8964668 45.3311511,81.4121094 C45.3311511,84.9603042 46.551842,87.9794797 48.9932605,90.4697266 C51.434679,92.9599734 54.380613,94.2050781 57.8311511,94.2050781 L57.8311511,94.2050781 Z" id="♌︎"></path>
                </g>
            </g>
        </g>
    </g>
</svg>