<?xml version="1.0" encoding="UTF-8" standalone="no"?>
<svg width="84px" height="71px" viewBox="0 0 84 71" version="1.1" xmlns="http://www.w3.org/2000/svg" xmlns:xlink="http://www.w3.org/1999/xlink">
    <!-- Generator: Sketch 40.1 (33804) - http://www.bohemiancoding.com/sketch -->
    <title>♎︎</title>
    <desc>Created with Sketch.</desc>
    <defs></defs>
    <g id="Index" stroke="none" stroke-width="1" fill="none" fill-rule="evenodd">
        <g id="Desktop" transform="translate(-548.000000, -778.000000)" fill="#4169E1">
            <g id="astro-wheel" transform="translate(126.000000, 123.000000)">
                <g id="libra" transform="translate(388.000000, 607.000000)">
                    <path d="M117.015804,93.484375 L81.2247886,93.484375 L81.2247886,87.6738281 C85.0008491,85.5904844 87.8003003,83.2060681 89.6232261,80.5205078 C91.4461519,77.8349475 92.3576011,74.1972886 92.3576011,69.6074219 C92.3576011,64.9524507 90.7788408,61.1845847 87.621273,58.3037109 C84.4637051,55.4228372 80.443563,53.9824219 75.5607261,53.9824219 C70.6453369,53.9824219 66.608919,55.4228372 63.4513511,58.3037109 C60.2937832,61.1845847 58.715023,64.9524507 58.715023,69.6074219 C58.715023,74.1972886 59.6264722,77.8349475 61.449398,80.5205078 C63.2723237,83.2060681 66.0717749,85.5904844 69.8478355,87.6738281 L69.8478355,93.484375 L34.0568198,93.484375 L34.0568198,87.6738281 L61.840023,87.6738281 C55.7853052,83.4420361 52.7579917,77.4199609 52.7579917,69.6074219 C52.7579917,63.3248384 54.9389595,58.1816606 59.3009605,54.1777344 C63.6629614,50.1738081 69.0828291,48.171875 75.5607261,48.171875 C82.0060708,48.171875 87.4096626,50.1738081 91.7716636,54.1777344 C96.1336646,58.1816606 98.3146323,63.3248384 98.3146323,69.6074219 C98.3146323,77.4199609 95.2873189,83.4420361 89.2326011,87.6738281 L117.015804,87.6738281 L117.015804,93.484375 Z M117.015804,118.09375 L34.0568198,118.09375 L34.0568198,112.283203 L117.015804,112.283203 L117.015804,118.09375 Z" id="♎︎"></path>
                </g>
            </g>
        </g>
    </g>
</svg>