<?xml version="1.0" encoding="UTF-8" standalone="no"?>
<svg width="64px" height="70px" viewBox="0 0 64 70" version="1.1" xmlns="http://www.w3.org/2000/svg" xmlns:xlink="http://www.w3.org/1999/xlink">
    <!-- Generator: Sketch 40.1 (33804) - http://www.bohemiancoding.com/sketch -->
    <title>♓︎</title>
    <desc>Created with Sketch.</desc>
    <defs></defs>
    <g id="Index" stroke="none" stroke-width="1" fill="none" fill-rule="evenodd">
        <g id="Desktop" transform="translate(-259.000000, -257.000000)" fill="#4169E1">
            <g id="astro-wheel" transform="translate(126.000000, 123.000000)">
                <g id="pisces" transform="translate(92.000000, 94.000000)">
                    <path d="M104.620951,77.8769531 L92.2186073,77.8769531 C92.7394433,90.7676426 95.0994457,101.460895 99.2986855,109.957031 L93.2928261,109.957031 C89.2563476,101.916626 86.8963451,91.223374 86.212748,77.8769531 L60.1873573,77.8769531 C59.5037602,91.223374 57.1437577,101.916626 53.1072792,109.957031 L47.1014198,109.957031 C51.3006596,101.460895 53.6769379,90.7676426 54.2303261,77.8769531 L41.8279823,77.8769531 L41.8279823,72.1640625 L54.1326698,72.1640625 C53.7094906,59.4686865 51.3657641,48.7591582 47.1014198,40.0351562 L53.1072792,40.0351562 C57.17631,48.3034268 59.5037607,59.0129551 60.0897011,72.1640625 L86.212748,72.1640625 C86.8963451,58.9152983 89.2563476,48.20577 93.2928261,40.0351562 L99.2986855,40.0351562 C95.0994457,48.6615015 92.7394433,59.3710298 92.2186073,72.1640625 L104.620951,72.1640625 L104.620951,77.8769531 Z" id="♓︎"></path>
                </g>
            </g>
        </g>
    </g>
</svg>