<?xml version="1.0" encoding="UTF-8" standalone="no"?>
<svg width="104px" height="78px" viewBox="0 0 104 78" version="1.1" xmlns="http://www.w3.org/2000/svg" xmlns:xlink="http://www.w3.org/1999/xlink">
    <!-- Generator: Sketch 40.1 (33804) - http://www.bohemiancoding.com/sketch -->
    <title>♏︎</title>
    <desc>Created with Sketch.</desc>
    <defs></defs>
    <g id="Index" stroke="none" stroke-width="1" fill="none" fill-rule="evenodd">
        <g id="Desktop" transform="translate(-374.000000, -771.000000)" fill="#4169E1">
            <g id="astro-wheel" transform="translate(126.000000, 123.000000)">
                <g id="scorpio" transform="translate(229.000000, 608.000000)">
                    <path d="M122.189453,114.175781 L117.794922,109.683594 C112.84698,114.859401 107.541044,117.447266 101.876953,117.447266 C96.961564,117.447266 92.9007322,115.787126 89.6943359,112.466797 C86.4879397,109.146468 84.8847656,104.507842 84.8847656,98.5507812 L84.8847656,57.8769531 C84.8847656,54.686833 83.7698679,51.9199336 81.5400391,49.5761719 C79.3102102,47.2324102 76.6328281,46.0605469 73.5078125,46.0605469 C70.4153491,46.0605469 67.737967,47.2324102 65.4755859,49.5761719 C63.2132048,51.9199336 62.0820312,54.686833 62.0820312,57.8769531 L62.0820312,110.269531 L56.0761719,110.269531 L56.0761719,57.8769531 C56.0761719,54.686833 54.9531362,51.9199336 52.7070312,49.5761719 C50.4609263,47.2324102 47.7916821,46.0605469 44.6992188,46.0605469 C41.6067554,46.0605469 38.9375112,47.2324102 36.6914062,49.5761719 C34.4453013,51.9199336 33.3222656,54.686833 33.3222656,57.8769531 L33.3222656,110.269531 L27.3164062,110.269531 L27.3164062,57.8769531 C27.3164062,49.9993096 24.7773691,46.0605469 19.6992188,46.0605469 L19.6992188,40.3476562 C22.2057417,40.3476562 24.6227097,41.1207605 26.9501953,42.6669922 C29.2776809,44.2132239 30.7994756,46.0117085 31.515625,48.0625 C32.5898491,45.816395 34.355782,43.9690828 36.8134766,42.5205078 C39.2711711,41.0719329 41.8997256,40.3476562 44.6992188,40.3476562 C51.4700859,40.3476562 56.2714702,43.3912456 59.1035156,49.4785156 C61.935561,43.3912456 66.7369453,40.3476562 73.5078125,40.3476562 C78.2929927,40.3476562 82.3863762,41.9671062 85.7880859,45.2060547 C89.1897957,48.4450032 90.890625,52.6685937 90.890625,57.8769531 L90.890625,98.5507812 C90.890625,102.912782 91.8590398,106.208648 93.7958984,108.438477 C95.7327571,110.668305 98.426415,111.783203 101.876953,111.783203 C103.927745,111.783203 105.799471,111.376306 107.492188,110.5625 C109.184904,109.748694 111.251941,108.088554 113.693359,105.582031 L109.201172,101.1875 L122.189453,101.1875 L122.189453,114.175781 Z" id="♏︎"></path>
                </g>
            </g>
        </g>
    </g>
</svg>