<?xml version="1.0" encoding="UTF-8" standalone="no"?>
<svg width="72px" height="71px" viewBox="0 0 72 71" version="1.1" xmlns="http://www.w3.org/2000/svg" xmlns:xlink="http://www.w3.org/1999/xlink">
    <!-- Generator: Sketch 40.1 (33804) - http://www.bohemiancoding.com/sketch -->
    <title>♉︎</title>
    <desc>Created with Sketch.</desc>
    <defs></defs>
    <g id="Index" stroke="none" stroke-width="1" fill="none" fill-rule="evenodd">
        <g id="Desktop" transform="translate(-556.000000, -185.000000)" fill="#4169E1">
            <g id="astro-wheel" transform="translate(126.000000, 123.000000)">
                <g id="taurus" transform="translate(388.000000, 14.000000)">
                    <path d="M113.15057,54.5371094 C110.058106,54.5371094 107.380724,55.0986272 105.118343,56.2216797 C102.855962,57.3447322 100.96796,58.711906 99.4542808,60.3232422 C97.9406013,61.9345784 96.2072202,64.0748564 94.2540855,66.7441406 C91.2267266,70.9108281 88.8178965,73.612624 87.027523,74.8496094 C91.2918672,76.7701919 94.6446982,79.6266086 97.0861167,83.4189453 C99.5275352,87.211282 100.748226,91.3534932 100.748226,95.8457031 C100.748226,102.160839 98.4940169,107.572569 93.9855308,112.081055 C89.4770447,116.589541 84.0653149,118.84375 77.7501792,118.84375 C71.4350435,118.84375 66.0233137,116.589541 61.5148276,112.081055 C57.0063416,107.572569 54.7521323,102.160839 54.7521323,95.8457031 C54.7521323,91.3534932 55.9646853,87.2194199 58.3898276,83.4433594 C60.81497,79.6672988 64.1596631,76.8352959 68.4240073,74.9472656 C66.666186,73.677728 64.2736318,70.9596562 61.246273,66.7929688 C59.2605859,64.0911323 57.5190669,61.9345784 56.0216636,60.3232422 C54.5242603,58.711906 52.6443962,57.3447322 50.3820151,56.2216797 C48.119634,55.0986272 45.442252,54.5371094 42.3497886,54.5371094 L42.3497886,48.53125 C46.2886104,48.53125 49.7065449,49.2555266 52.6036948,50.7041016 C55.5008447,52.1526765 57.8933989,53.8697817 59.7814292,55.8554688 C61.6694595,57.8411558 63.7690479,60.4127446 66.0802573,63.5703125 C69.1401685,67.737 71.4594812,70.3248647 73.0382651,71.3339844 C74.6170491,72.343104 76.1876714,72.8476562 77.7501792,72.8476562 C79.2801348,72.8476562 80.8426191,72.343104 82.4376792,71.3339844 C84.0327393,70.3248647 86.3601899,67.737 89.4201011,63.5703125 C91.6987583,60.4127446 93.7820708,57.8411558 95.6701011,55.8554688 C97.5581314,53.8697817 99.9588235,52.1526765 102.87225,50.7041016 C105.785676,49.2555266 109.211748,48.53125 113.15057,48.53125 L113.15057,54.5371094 Z M77.7501792,113.130859 C82.4377026,113.130859 86.4415689,111.446306 89.761898,108.077148 C93.0822271,104.707991 94.7423667,100.630883 94.7423667,95.8457031 C94.7423667,91.0605229 93.0822271,86.9834153 89.761898,83.6142578 C86.4415689,80.2451003 82.4377026,78.5605469 77.7501792,78.5605469 C73.0626558,78.5605469 69.0587896,80.2451003 65.7384605,83.6142578 C62.4181314,86.9834153 60.7579917,91.0605229 60.7579917,95.8457031 C60.7579917,100.630883 62.4181314,104.707991 65.7384605,108.077148 C69.0587896,111.446306 73.0626558,113.130859 77.7501792,113.130859 L77.7501792,113.130859 Z" id="♉︎"></path>
                </g>
            </g>
        </g>
    </g>
</svg>