<?xml version="1.0" encoding="UTF-8" standalone="no"?>
<svg width="97px" height="87px" viewBox="0 0 97 87" version="1.1" xmlns="http://www.w3.org/2000/svg" xmlns:xlink="http://www.w3.org/1999/xlink">
    <!-- Generator: Sketch 40.1 (33804) - http://www.bohemiancoding.com/sketch -->
    <title>♍︎</title>
    <desc>Created with Sketch.</desc>
    <defs></defs>
    <g id="Index" stroke="none" stroke-width="1" fill="none" fill-rule="evenodd">
        <g id="Desktop" transform="translate(-674.000000, -684.000000)" fill="#4169E1">
            <g id="astro-wheel" transform="translate(126.000000, 123.000000)">
                <g id="virgo" transform="translate(527.000000, 530.000000)">
                    <path d="M117.455078,70.6386719 C117.455078,92.0580498 109.186932,104.427718 92.6503906,107.748047 L92.6503906,117.953125 L86.6445312,117.953125 L86.6445312,108.626953 C84.235665,108.822267 81.9733179,108.919922 79.8574219,108.919922 L79.8574219,102.962891 C82.787124,102.962891 85.0494712,102.881511 86.6445312,102.71875 L86.6445312,49.3496094 C86.6445312,46.1594893 85.5296335,43.3925898 83.2998047,41.0488281 C81.0699758,38.7050664 78.3925938,37.5332031 75.2675781,37.5332031 C72.1751147,37.5332031 69.4977327,38.7050664 67.2353516,41.0488281 C64.9729705,43.3925898 63.8417969,46.1594893 63.8417969,49.3496094 L63.8417969,101.742188 L57.8359375,101.742188 L57.8359375,49.3496094 C57.8359375,46.1594893 56.7129019,43.3925898 54.4667969,41.0488281 C52.2206919,38.7050664 49.5514478,37.5332031 46.4589844,37.5332031 C43.366521,37.5332031 40.6972769,38.7050664 38.4511719,41.0488281 C36.2050669,43.3925898 35.0820312,46.1594893 35.0820312,49.3496094 L35.0820312,101.742188 L29.0761719,101.742188 L29.0761719,49.3496094 C29.0761719,41.4719658 26.5371348,37.5332031 21.4589844,37.5332031 L21.4589844,31.8203125 C23.9655073,31.8203125 26.3824753,32.5934167 28.7099609,34.1396484 C31.0374465,35.6858801 32.5592412,37.4843647 33.2753906,39.5351562 C34.3496147,37.2890513 36.1155476,35.441739 38.5732422,33.9931641 C41.0309368,32.5445891 43.6594912,31.8203125 46.4589844,31.8203125 C53.2298516,31.8203125 58.0312358,34.8639019 60.8632812,40.9511719 C63.6953267,34.8639019 68.4967109,31.8203125 75.2675781,31.8203125 C81.5827139,31.8203125 86.5143052,34.5546602 90.0625,40.0234375 C91.4622466,37.2239443 93.0898345,35.1569077 94.9453125,33.8222656 C96.8007905,32.4876235 99.1770688,31.8203125 102.074219,31.8203125 C106.664085,31.8203125 110.374986,33.5455557 113.207031,36.9960938 C116.039077,40.4466318 117.455078,44.5644292 117.455078,49.3496094 L117.455078,70.6386719 Z M111.449219,70.6386719 L111.449219,49.3496094 C111.449219,45.866519 110.611011,43.0263782 108.93457,40.8291016 C107.25813,38.631825 104.971369,37.5332031 102.074219,37.5332031 C99.1770688,37.5332031 96.8821699,38.631825 95.1894531,40.8291016 C93.4967363,43.0263782 92.6503906,45.866519 92.6503906,49.3496094 L92.6503906,101.839844 C105.183005,98.7799326 111.449219,88.379646 111.449219,70.6386719 L111.449219,70.6386719 Z" id="♍︎"></path>
                </g>
            </g>
        </g>
    </g>
</svg>